<svg version="1.1" width="1488.187500" height="1052.362500" xmlns="http://www.w3.org/2000/svg" xmlns:xlink="http://www.w3.org/1999/xlink" id="svg2" overflow="hidden"><defs id="defs6"><clipPath id="clipPath16"><path d=" M 0.000000 841.890015 L 1190.550049 841.890015 L 1190.550049 0.000000 L 0.000000 0.000000 L 0.000000 841.890015 Z" id="path18"/></clipPath></defs><g id="g10" transform="matrix(1.250000,0.000000,0.000000,-1.250000,0.000000,1052.362500)"><g id="g12"><g id="g14" clip-path="url(#clipPath16)"><g id="g20" transform="matrix(1.000000,0.000000,0.000000,1.000000,585.677700,432.962900)"><path d=" M 0.000000 0.000000 L 0.000000 -8.199000 C 0.000000 -9.319000 0.487000 -9.903000 1.575000 -9.903000 C 2.663000 -9.903000 3.166000 -9.319000 3.166000 -8.199000 L 3.166000 0.000000 L 5.406000 0.000000 L 5.406000 -8.215000 C 5.406000 -10.796000 3.880000 -11.884000 1.575000 -11.884000 C -0.730000 -11.884000 -2.240000 -10.796000 -2.240000 -8.215000 L -2.240000 0.000000 L 0.000000 0.000000 Z" id="path22" stroke="none" fill="#2D2C2E" fill-rule="nonzero" fill-opacity="1.000000"/></g><g id="g24" transform="matrix(1.000000,0.000000,0.000000,1.000000,592.698200,421.241200)"><path d=" M 0.000000 0.000000 L 0.000000 11.722000 L 2.452000 11.722000 L 5.569000 4.773000 L 5.602000 4.773000 L 5.602000 11.722000 L 7.647000 11.722000 L 7.647000 0.000000 L 5.504000 0.000000 L 2.078000 7.565000 L 2.046000 7.565000 L 2.046000 0.000000 L 0.000000 0.000000 Z" id="path26" stroke="none" fill="#2D2C2E" fill-rule="nonzero" fill-opacity="1.000000"/></g><path d=" M 601.966980 432.963013 L 604.205994 432.963013 L 604.205994 421.240997 L 601.966980 421.240997 L 601.966980 432.963013 Z" id="path28" stroke="none" fill="#2D2C2E" fill-rule="nonzero" fill-opacity="1.000000"/><g id="g30" transform="matrix(1.000000,0.000000,0.000000,1.000000,605.260300,432.962900)"><path d=" M 0.000000 0.000000 L 2.208000 0.000000 L 4.271000 -8.377000 L 4.303000 -8.377000 L 6.349000 0.000000 L 8.540000 0.000000 L 5.553000 -11.722000 L 3.004000 -11.722000 L 0.000000 0.000000 Z" id="path32" stroke="none" fill="#2D2C2E" fill-rule="nonzero" fill-opacity="1.000000"/></g><g id="g34" transform="matrix(1.000000,0.000000,0.000000,1.000000,614.849100,421.241200)"><path d=" M 0.000000 0.000000 L 0.000000 11.722000 L 6.138000 11.722000 L 6.138000 9.741000 L 2.240000 9.741000 L 2.240000 7.046000 L 5.212000 7.046000 L 5.212000 5.065000 L 2.240000 5.065000 L 2.240000 1.980000 L 6.300000 1.980000 L 6.300000 0.000000 L 0.000000 0.000000 Z" id="path36" stroke="none" fill="#2D2C2E" fill-rule="nonzero" fill-opacity="1.000000"/></g><g id="g38" transform="matrix(1.000000,0.000000,0.000000,1.000000,624.844200,427.865200)"><path d=" M 0.000000 0.000000 L 1.151000 0.000000 C 2.144000 0.000000 2.743000 0.487000 2.743000 1.624000 C 2.743000 2.760000 2.144000 3.247000 1.151000 3.247000 L 0.000000 3.247000 L 0.000000 0.000000 Z M 3.020000 -6.624000 L 1.070000 -1.851000 L 0.000000 -1.851000 L 0.000000 -6.624000 L -2.240000 -6.624000 L -2.240000 5.098000 L 1.007000 5.098000 C 3.701000 5.098000 4.983000 3.799000 4.983000 1.591000 C 4.983000 0.130000 4.465000 -0.925000 3.215000 -1.396000 L 5.423000 -6.624000 L 3.020000 -6.624000 Z" id="path40" stroke="none" fill="#2D2C2E" fill-rule="nonzero" fill-opacity="1.000000"/></g><g id="g42" transform="matrix(1.000000,0.000000,0.000000,1.000000,636.011200,429.699700)"><path d=" M 0.000000 0.000000 C -0.373000 1.104000 -0.859000 1.575000 -1.640000 1.575000 C -2.435000 1.575000 -2.873000 1.088000 -2.873000 0.292000 C -2.873000 -1.477000 2.127000 -1.607000 2.127000 -5.276000 C 2.127000 -7.290000 0.747000 -8.621000 -1.605000 -8.621000 C -3.425000 -8.621000 -4.838000 -7.630000 -5.438000 -5.325000 L -3.229000 -4.854000 C -2.971000 -6.267000 -2.158000 -6.770000 -1.492000 -6.770000 C -0.714000 -6.770000 -0.112000 -6.250000 -0.112000 -5.374000 C -0.112000 -3.166000 -5.113000 -3.133000 -5.113000 0.146000 C -5.113000 2.160000 -3.911000 3.426000 -1.591000 3.426000 C 0.406000 3.426000 1.624000 2.241000 2.015000 0.584000 L 0.000000 0.000000 Z" id="path44" stroke="none" fill="#2D2C2E" fill-rule="nonzero" fill-opacity="1.000000"/></g><path d=" M 639.229004 432.963013 L 641.468994 432.963013 L 641.468994 421.240997 L 639.229004 421.240997 L 639.229004 432.963013 Z" id="path46" stroke="none" fill="#2D2C2E" fill-rule="nonzero" fill-opacity="1.000000"/><g id="g48" transform="matrix(1.000000,0.000000,0.000000,1.000000,649.997600,432.962900)"><path d=" M 0.000000 0.000000 L 0.000000 -1.980000 L -2.613000 -1.980000 L -2.613000 -11.722000 L -4.854000 -11.722000 L -4.854000 -1.980000 L -7.468000 -1.980000 L -7.468000 -0.000000 L 0.000000 0.000000 Z" id="path50" stroke="none" fill="#2D2C2E" fill-rule="nonzero" fill-opacity="1.000000"/></g><g id="g52" transform="matrix(1.000000,0.000000,0.000000,1.000000,656.739700,435.999000)"><path d=" M 0.000000 0.000000 L -2.388000 -2.370000 L -4.026000 -2.370000 L -2.518000 0.000000 L 0.000000 0.000000 Z M -5.698000 -14.758000 L -5.698000 -3.036000 L 0.438000 -3.036000 L 0.438000 -5.017000 L -3.458000 -5.017000 L -3.458000 -7.712000 L -0.487000 -7.712000 L -0.487000 -9.692000 L -3.458000 -9.692000 L -3.458000 -12.777000 L 0.601000 -12.777000 L 0.601000 -14.758000 L -5.698000 -14.758000 Z" id="path54" stroke="none" fill="#2D2C2E" fill-rule="nonzero" fill-opacity="1.000000"/></g><g id="g56" transform="matrix(1.000000,0.000000,0.000000,1.000000,585.547900,408.972700)"><path d=" M 0.000000 0.000000 L 0.779000 0.000000 C 2.013000 0.000000 2.728000 0.585000 2.728000 2.338000 L 2.728000 5.423000 C 2.728000 7.079000 2.176000 7.761000 0.779000 7.761000 L 0.000000 7.761000 L 0.000000 0.000000 Z M -2.240000 9.741000 L 0.877000 9.741000 C 3.442000 9.741000 4.871000 8.638000 4.968000 5.683000 L 4.968000 2.078000 C 4.871000 -0.876000 3.442000 -1.979000 0.877000 -1.979000 L -2.240000 -1.979000 L -2.240000 9.741000 Z" id="path58" stroke="none" fill="#2D2C2E" fill-rule="nonzero" fill-opacity="1.000000"/></g><g id="g60" transform="matrix(1.000000,0.000000,0.000000,1.000000,592.133800,406.992200)"><path d=" M 0.000000 0.000000 L 0.000000 11.722000 L 6.137000 11.722000 L 6.137000 9.741000 L 2.240000 9.741000 L 2.240000 7.046000 L 5.211000 7.046000 L 5.211000 5.065000 L 2.240000 5.065000 L 2.240000 1.979000 L 6.299000 1.979000 L 6.299000 0.000000 L 0.000000 0.000000 Z" id="path62" stroke="none" fill="#2D2C2E" fill-rule="nonzero" fill-opacity="1.000000"/></g><g id="g64" transform="matrix(1.000000,0.000000,0.000000,1.000000,603.947800,406.992200)"><path d=" M 0.000000 0.000000 L 0.000000 11.722000 L 2.240000 11.722000 L 2.240000 1.979000 L 5.846000 1.979000 L 5.846000 0.000000 L 0.000000 0.000000 Z" id="path66" stroke="none" fill="#2D2C2E" fill-rule="nonzero" fill-opacity="1.000000"/></g><g id="g68" transform="matrix(1.000000,0.000000,0.000000,1.000000,612.897900,410.466800)"><path d=" M 0.000000 0.000000 C 0.000000 -1.299000 0.568000 -1.656000 1.463000 -1.656000 C 2.354000 -1.656000 2.924000 -1.299000 2.924000 0.000000 L 2.924000 4.772000 C 2.924000 6.071000 2.354000 6.429000 1.463000 6.429000 C 0.568000 6.429000 0.000000 6.071000 0.000000 4.772000 L 0.000000 0.000000 Z M -2.239000 4.479000 C -2.239000 7.370000 -0.714000 8.409000 1.463000 8.409000 C 3.638000 8.409000 5.163000 7.370000 5.163000 4.479000 L 5.163000 0.292000 C 5.163000 -2.598000 3.638000 -3.637000 1.463000 -3.637000 C -0.714000 -3.637000 -2.239000 -2.598000 -2.239000 0.292000 L -2.239000 4.479000 Z" id="path70" stroke="none" fill="#2D2C2E" fill-rule="nonzero" fill-opacity="1.000000"/></g><g id="g72" transform="matrix(1.000000,0.000000,0.000000,1.000000,621.943800,413.616200)"><path d=" M 0.000000 0.000000 L 1.151000 0.000000 C 2.144000 0.000000 2.743000 0.487000 2.743000 1.623000 C 2.743000 2.760000 2.144000 3.247000 1.151000 3.247000 L 0.000000 3.247000 L 0.000000 0.000000 Z M 3.020000 -6.624000 L 1.070000 -1.851000 L 0.000000 -1.851000 L 0.000000 -6.624000 L -2.240000 -6.624000 L -2.240000 5.098000 L 1.007000 5.098000 C 3.701000 5.098000 4.983000 3.799000 4.983000 1.591000 C 4.983000 0.130000 4.465000 -0.926000 3.215000 -1.396000 L 5.423000 -6.624000 L 3.020000 -6.624000 Z" id="path74" stroke="none" fill="#2D2C2E" fill-rule="nonzero" fill-opacity="1.000000"/></g><g id="g76" transform="matrix(1.000000,0.000000,0.000000,1.000000,630.665500,413.616200)"><path d=" M 0.000000 0.000000 L 1.152000 0.000000 C 2.145000 0.000000 2.744000 0.487000 2.744000 1.623000 C 2.744000 2.760000 2.145000 3.247000 1.152000 3.247000 L 0.000000 3.247000 L 0.000000 0.000000 Z M 3.021000 -6.624000 L 1.071000 -1.851000 L 0.000000 -1.851000 L 0.000000 -6.624000 L -2.239000 -6.624000 L -2.239000 5.098000 L 1.008000 5.098000 C 3.702000 5.098000 4.984000 3.799000 4.984000 1.591000 C 4.984000 0.130000 4.466000 -0.926000 3.216000 -1.396000 L 5.424000 -6.624000 L 3.021000 -6.624000 Z" id="path78" stroke="none" fill="#2D2C2E" fill-rule="nonzero" fill-opacity="1.000000"/></g><g id="g80" transform="matrix(1.000000,0.000000,0.000000,1.000000,639.948700,411.440400)"><path d=" M 0.000000 0.000000 L 2.226000 0.000000 L 1.138000 4.741000 L 1.104000 4.741000 L 0.000000 0.000000 Z M -3.197000 -4.448000 L -0.292000 7.273000 L 2.582000 7.273000 L 5.406000 -4.448000 L 3.265000 -4.448000 L 2.695000 -1.980000 L -0.404000 -1.980000 L -1.038000 -4.448000 L -3.197000 -4.448000 Z" id="path82" stroke="none" fill="#2D2C2E" fill-rule="nonzero" fill-opacity="1.000000"/></g><path d=" M 646.429016 418.713989 L 648.669006 418.713989 L 648.669006 406.992004 L 646.429016 406.992004 L 646.429016 418.713989 Z" id="path84" stroke="none" fill="#2D2C2E" fill-rule="nonzero" fill-opacity="1.000000"/><g id="g86" transform="matrix(1.000000,0.000000,0.000000,1.000000,650.312000,406.992200)"><path d=" M 0.000000 0.000000 L 0.000000 11.722000 L 2.450000 11.722000 L 5.567000 4.773000 L 5.601000 4.773000 L 5.601000 11.722000 L 7.646000 11.722000 L 7.646000 0.000000 L 5.504000 0.000000 L 2.077000 7.565000 L 2.045000 7.565000 L 2.045000 0.000000 L 0.000000 0.000000 Z" id="path88" stroke="none" fill="#2D2C2E" fill-rule="nonzero" fill-opacity="1.000000"/></g><g id="g90" transform="matrix(1.000000,0.000000,0.000000,1.000000,659.522900,406.992200)"><path d=" M 0.000000 0.000000 L 0.000000 11.722000 L 6.137000 11.722000 L 6.137000 9.741000 L 2.239000 9.741000 L 2.239000 7.046000 L 5.211000 7.046000 L 5.211000 5.065000 L 2.239000 5.065000 L 2.239000 1.979000 L 6.299000 1.979000 L 6.299000 0.000000 L 0.000000 0.000000 Z" id="path92" stroke="none" fill="#2D2C2E" fill-rule="nonzero" fill-opacity="1.000000"/></g><g id="g94" transform="matrix(1.000000,0.000000,0.000000,1.000000,576.321800,420.943400)"><path d=" M 0.000000 0.000000 C 0.000000 -13.125000 -10.642000 -23.768000 -23.768000 -23.768000 C -36.896000 -23.768000 -47.536999 -13.125000 -47.536999 0.000000 C -47.536999 13.127000 -36.896000 23.770000 -23.768000 23.770000 C -10.642000 23.770000 0.000000 13.127000 0.000000 0.000000" id="path96" stroke="none" fill="#2D2C2E" fill-rule="nonzero" fill-opacity="1.000000"/></g><g id="g98" transform="matrix(1.000000,0.000000,0.000000,1.000000,552.196800,413.994100)"><path d=" M 0.000000 0.000000 C -0.530000 -0.289000 -1.185000 -0.443000 -1.967000 -0.443000 C -4.244000 -0.443000 -5.656000 0.438000 -5.656000 4.834000 L -5.656000 18.952000 L -12.996000 18.952000 L -12.996000 4.732000 C -12.996000 -2.797000 -8.976000 -7.115000 -1.967000 -7.115000 C 0.159000 -7.115000 1.776000 -6.764000 3.370000 -5.987000 C 1.772000 -4.464000 0.625000 -2.452000 0.000000 0.000000" id="path100" stroke="none" fill="#FFFFFF" fill-rule="nonzero" fill-opacity="1.000000"/></g><g id="g102" transform="matrix(1.000000,0.000000,0.000000,1.000000,561.363800,418.831100)"><path d=" M 0.000000 0.000000 L 0.000000 14.118000 L -7.340000 14.118000 L -7.340000 -0.103000 C -7.340000 -7.630000 -3.318000 -11.949000 3.689000 -11.949000 L 6.598000 -11.949000 L 6.598000 -5.278000 L 3.689000 -5.278000 C 1.412000 -5.278000 0.000000 -4.396000 0.000000 0.000000" id="path104" stroke="none" fill="#FFF04C" fill-rule="nonzero" fill-opacity="1.000000"/></g></g></g></g></svg>